<?xml version="1.0" standalone="no"?>
<!DOCTYPE svg PUBLIC "-//W3C//DTD SVG 20010904//EN"
 "http://www.w3.org/TR/2001/REC-SVG-20010904/DTD/svg10.dtd">
<svg version="1.0" xmlns="http://www.w3.org/2000/svg"
 width="473.000000pt" height="473.000000pt" viewBox="0 0 473.000000 473.000000"
 preserveAspectRatio="xMidYMid meet">
<metadata>
Created by potrace 1.14, written by Peter Selinger 2001-2017
</metadata>
<g transform="translate(0.000000,473.000000) scale(0.100000,-0.100000)"
fill="#000000" stroke="none">
<path d="M2094 4075 c-180 -39 -363 -170 -478 -343 -90 -136 -148 -383 -126
-538 8 -55 9 -88 2 -101 -7 -13 -6 -30 5 -58 8 -22 23 -63 33 -91 31 -88 68
-151 124 -211 l54 -58 -10 -145 c-5 -79 -16 -156 -23 -170 -7 -14 -16 -45 -20
-70 -7 -47 -36 -172 -41 -178 -1 -2 -12 1 -23 7 -35 19 -141 -42 -141 -81 0
-17 6 -19 43 -16 40 3 42 1 45 -25 2 -16 -3 -38 -11 -50 -40 -62 -28 -133 33
-192 39 -38 40 -40 18 -45 -36 -8 -71 -90 -78 -180 -5 -63 -7 -70 -14 -45 -15
53 -47 95 -84 111 -34 14 -36 16 -19 29 20 15 46 108 47 168 0 21 -5 58 -11
82 -11 43 -9 56 16 118 13 31 -24 19 -46 -16 -18 -28 -19 -42 -14 -114 6 -79
6 -84 -20 -118 -33 -43 -55 -46 -52 -7 l2 27 -120 9 c-224 16 -255 14 -307
-16 -70 -42 -132 -128 -98 -140 14 -4 -53 -102 -139 -204 -108 -126 -332 -319
-498 -429 l-43 -28 0 -478 0 -479 355 0 355 0 16 25 c28 43 131 105 175 105
42 0 122 -49 134 -82 7 -20 1 -22 173 54 73 33 161 64 195 70 34 6 70 18 79
26 14 12 18 11 27 -6 8 -15 25 -21 74 -26 76 -9 100 -21 202 -104 l76 -62 564
0 565 0 -12 28 c-6 15 -11 93 -12 182 0 132 2 160 18 189 16 31 20 33 54 27
21 -3 60 -9 88 -12 l52 -7 -5 -57 c-5 -54 -4 -58 25 -78 16 -12 35 -22 41 -22
6 0 16 -11 21 -25 8 -20 16 -25 43 -25 23 0 52 -13 93 -42 32 -23 102 -68 154
-100 l94 -58 438 0 438 0 0 201 0 202 -36 101 c-38 106 -56 136 -83 136 -9 0
-52 35 -95 77 -56 54 -109 93 -183 134 -122 69 -209 133 -359 264 -147 130
-377 322 -439 367 -45 32 -119 107 -282 282 -29 30 -53 62 -53 71 0 28 -40 38
-129 32 -95 -6 -152 -22 -145 -40 2 -7 -8 -19 -24 -28 -16 -9 -38 -38 -52 -67
-26 -56 -35 -62 -44 -34 -8 24 -66 78 -92 86 -14 4 -28 1 -38 -9 -19 -19 -21
-12 -5 17 6 11 12 37 13 57 3 39 41 208 87 384 30 115 29 140 -4 135 -23 -3
-37 -46 -124 -381 -37 -142 -39 -147 -68 -157 -59 -19 -171 -31 -226 -25 -64
8 -75 13 -77 40 -1 11 -5 44 -8 73 -3 30 -2 58 2 62 5 5 45 10 89 12 l80 3 -5
-35 c-2 -19 -4 -57 -5 -85 0 -43 3 -50 19 -50 23 0 31 25 41 125 l6 65 64 34
c62 33 84 59 70 81 -10 16 -48 11 -80 -10 -41 -27 -45 -26 -45 16 0 43 -21 42
-34 -2 -20 -66 -25 -73 -66 -84 -23 -6 -60 -10 -83 -8 l-42 3 3 46 c5 65 -14
71 -39 15 -11 -25 -25 -46 -32 -46 -24 0 -166 53 -170 64 -3 6 -1 33 3 59 9
62 -3 68 -25 12 -9 -25 -21 -45 -26 -45 -5 0 -27 9 -49 20 -64 33 -68 23 -13
-28 l52 -47 -16 -73 c-12 -53 -14 -75 -5 -84 22 -22 40 0 51 63 6 34 13 64 15
66 4 4 55 -14 159 -55 16 -6 19 -20 20 -90 1 -49 -2 -82 -8 -82 -5 0 -89 21
-185 45 -125 33 -182 52 -200 69 -14 13 -33 26 -44 30 -11 4 -16 12 -12 21 3
9 14 54 23 100 15 75 20 85 39 85 12 0 27 6 34 14 9 12 7 17 -9 28 -17 10 -21
23 -21 65 0 65 7 83 32 83 16 0 19 7 18 48 -1 26 -1 95 0 154 2 115 -6 143
-54 187 -35 33 -81 107 -96 155 -7 22 -21 54 -32 72 -45 77 -54 271 -17 383
22 66 80 196 118 261 11 19 34 65 50 101 59 128 176 227 320 273 42 14 101 36
131 50 l55 25 -40 0 c-22 0 -67 -7 -101 -14z m-513 -2138 c-13 -13 -26 -3 -16
12 3 6 11 8 17 5 6 -4 6 -10 -1 -17z m1439 -125 c0 -10 14 -30 31 -45 18 -15
29 -30 26 -34 -8 -7 -41 14 -80 51 -15 14 -34 26 -42 26 -8 0 -17 5 -20 10 -4
6 12 10 39 10 37 0 46 -3 46 -18z m-507 -74 c3 -12 2 -29 -3 -37 -8 -13 -9
-12 -10 6 0 12 -3 28 -6 37 -3 9 -2 16 4 16 5 0 12 -10 15 -22z m-1563 -28
c-36 -10 -67 -17 -69 -14 -9 8 66 33 99 33 30 0 25 -3 -30 -19z m296 -15 c-20
-15 -63 -20 -90 -9 -34 13 -13 24 47 24 57 -1 60 -2 43 -15z m1237 -39 c3 -7
-1 -23 -9 -35 l-15 -20 -20 20 c-11 11 -19 22 -17 23 8 7 44 25 49 26 4 0 9
-6 12 -14z m645 -13 c75 -46 94 -78 83 -139 -4 -22 -4 -50 0 -62 8 -21 6 -21
-39 -15 -62 9 -111 55 -159 150 -30 62 -34 76 -22 84 20 13 105 2 137 -18z
m-1518 -7 c0 -3 -4 -8 -10 -11 -5 -3 -10 -1 -10 4 0 6 5 11 10 11 6 0 10 -2
10 -4z m1383 -100 c26 -43 47 -79 47 -81 0 -8 -97 -25 -149 -25 l-59 0 -31 57
c-17 31 -31 60 -31 63 0 4 19 13 43 20 23 6 58 20 77 31 19 10 40 17 45 15 6
-1 31 -37 58 -80z m304 -65 c-3 -12 8 -24 34 -39 53 -31 49 -44 -6 -18 -39 19
-44 25 -45 54 0 21 4 31 11 26 6 -3 9 -14 6 -23z m-1207 -76 c0 -9 -9 -15 -21
-15 -18 0 -19 2 -9 15 7 8 16 15 21 15 5 0 9 -7 9 -15z m1250 -45 c33 -22 66
-53 74 -68 8 -16 55 -63 105 -105 88 -75 132 -132 145 -191 7 -28 7 -29 -16
-14 -13 8 -44 27 -70 42 -40 23 -48 33 -48 56 0 28 -2 29 -47 28 -27 0 -60 3
-75 7 -18 4 -28 3 -28 -3 0 -6 13 -13 30 -17 16 -4 32 -11 36 -16 4 -7 -120
-179 -129 -179 -2 0 -27 9 -57 19 -61 22 -62 26 -28 97 11 25 49 68 89 104 74
66 82 90 21 64 -20 -9 -50 -19 -65 -22 -18 -3 -38 -19 -57 -48 -17 -23 -34
-46 -39 -49 -6 -3 -38 13 -72 35 -53 34 -89 46 -121 41 -4 0 -10 11 -13 27 -4
15 -13 41 -20 59 -14 31 -13 34 17 67 18 20 36 36 40 36 5 0 47 -34 93 -75 85
-76 111 -88 122 -59 8 22 -67 96 -135 132 l-56 30 40 11 c21 6 66 11 99 11 33
0 67 5 75 10 22 15 26 13 90 -30z m-1111 -62 c36 -39 79 -79 94 -89 27 -16 28
-17 9 -24 -13 -4 -28 -25 -41 -58 -10 -29 -30 -74 -44 -102 -14 -27 -50 -126
-80 -220 -82 -251 -118 -346 -130 -342 -12 4 -88 174 -194 437 -41 102 -84
204 -96 227 l-22 43 45 44 c25 25 81 67 125 94 72 44 83 48 100 36 28 -21 98
-18 126 6 13 10 28 19 33 20 4 0 38 -32 75 -72z m684 65 c9 -9 -13 -34 -24
-27 -14 8 -11 34 4 34 8 0 17 -3 20 -7z m-2299 -76 c-5 -14 -44 -41 -44 -30 0
10 32 43 41 43 5 0 6 -6 3 -13z m1766 -7 c13 -8 13 -10 -2 -10 -9 0 -20 5 -23
10 -8 13 5 13 25 0z m351 -96 c13 -12 16 -25 12 -46 -4 -21 0 -38 17 -60 19
-25 22 -44 24 -117 1 -60 6 -96 19 -120 9 -19 17 -36 17 -38 0 -1 -17 -3 -38
-3 -63 0 -71 12 -81 126 -8 84 -13 108 -36 142 -28 43 -28 63 1 110 17 26 40
28 65 6z m78 -48 c-3 -3 -11 5 -18 17 -13 21 -12 21 5 5 10 -10 16 -20 13 -22z
m-1099 -26 c-1 -12 -4 -11 -15 4 -8 10 -12 23 -8 29 7 11 23 -12 23 -33z
m2136 -42 c28 -30 17 -30 -18 0 -16 13 -24 32 -15 32 2 0 16 -14 33 -32z
m-778 -28 c24 -16 48 -30 54 -32 9 -3 -11 -52 -52 -128 -10 -19 -110 -17 -122
2 -17 28 -7 81 25 134 17 29 37 53 42 54 6 0 29 -13 53 -30z m463 -36 c7 -9
32 -29 56 -46 38 -26 44 -34 41 -61 -2 -24 -13 -38 -46 -60 l-43 -29 -75 33
c-41 18 -73 36 -72 41 7 20 104 137 114 138 6 0 17 -7 25 -16z m-669 -56 c-4
-28 -6 -30 -13 -13 -4 11 -8 31 -8 44 -1 18 2 21 12 12 9 -6 12 -23 9 -43z
m850 -30 c7 -13 13 -48 14 -78 1 -30 5 -78 9 -106 7 -49 6 -53 -18 -69 -53
-35 -40 -95 21 -95 44 0 50 -21 22 -79 -66 -136 -88 -154 -233 -186 -73 -16
-81 -16 -121 -1 -23 9 -51 22 -61 30 -17 12 -17 14 -1 48 19 40 24 41 204 54
116 9 141 24 126 75 -11 38 -42 52 -50 22 -5 -17 -22 -21 -127 -31 -212 -21
-336 -12 -412 31 -42 24 -156 187 -131 187 7 0 19 7 26 15 20 24 -5 44 -62 51
-37 5 -48 10 -44 21 4 8 6 20 6 26 0 6 9 1 20 -11 18 -19 32 -22 94 -22 72 0
74 -1 81 -27 9 -39 82 -111 119 -119 17 -3 41 -15 53 -27 14 -12 41 -22 72
-25 49 -4 49 -4 121 63 62 58 75 66 100 62 30 -6 57 13 46 32 -4 6 6 18 21 27
62 39 73 55 73 106 0 52 12 61 32 26z m-482 -48 c22 -11 40 -22 40 -25 0 -2
-11 -21 -25 -41 -50 -73 -20 -91 46 -27 l46 44 56 -21 c31 -12 59 -25 62 -29
2 -5 -22 -34 -55 -65 -64 -61 -81 -65 -125 -26 -11 10 -34 21 -52 25 -35 7
-81 47 -94 84 -8 19 -4 30 23 61 18 21 34 39 36 39 1 1 21 -8 42 -19z m-304
-232 c8 -16 13 -28 11 -28 -7 0 -57 76 -57 86 1 11 27 -22 46 -58z m-1993 -48
c3 -25 11 -106 17 -180 14 -174 15 -177 45 -184 18 -5 25 -13 25 -31 0 -22 -4
-25 -37 -25 -21 -1 -49 -7 -63 -15 -32 -19 -62 -18 -135 0 -57 15 -258 124
-307 166 -22 19 -22 20 -4 32 10 7 43 32 72 56 30 24 57 42 59 39 3 -3 -13
-24 -35 -47 -30 -31 -37 -43 -26 -47 24 -9 56 14 156 112 103 101 211 187 221
176 4 -4 9 -27 12 -52z m343 -440 c-49 -27 -95 -55 -102 -61 -8 -7 -17 -9 -21
-6 -19 20 135 116 187 117 18 0 -1 -14 -64 -50z"/>
<path d="M2633 4066 c21 -13 48 -32 60 -43 12 -11 36 -24 52 -27 l30 -8 -27
29 c-16 16 -28 32 -28 36 0 30 144 -101 200 -183 22 -31 135 -177 147 -190 14
-14 -30 75 -69 140 -25 41 -47 82 -51 91 -9 27 -142 136 -181 149 -19 6 -39 9
-44 6 -5 -3 -26 1 -48 9 -64 23 -85 18 -41 -9z"/>
<path d="M3106 3712 c-6 -10 40 -117 62 -146 15 -18 42 -138 42 -185 0 -34 -3
-42 -15 -37 -11 4 -15 -1 -15 -19 0 -14 5 -25 11 -25 15 0 4 -89 -17 -138 -8
-19 -14 -46 -14 -61 0 -56 -28 -131 -67 -183 -23 -29 -57 -80 -76 -113 -65
-110 -171 -228 -282 -313 -43 -33 1 -10 85 44 74 48 251 231 287 298 13 22 53
102 90 176 l68 135 3 126 c6 191 -27 303 -121 413 -21 25 -36 35 -41 28z"/>
<path d="M2005 3354 c-9 -9 -13 -24 -10 -34 5 -15 -4 -21 -48 -34 -29 -8 -68
-26 -87 -38 -66 -45 -97 -152 -79 -272 22 -142 76 -218 164 -232 101 -15 180
25 224 111 22 45 25 64 27 179 1 77 6 132 13 139 6 6 11 17 11 24 0 29 -154
173 -185 173 -8 0 -21 -7 -30 -16z"/>
<path d="M2563 3019 c-35 -11 -63 -24 -63 -29 0 -16 153 -12 175 4 16 12 17
16 6 30 -17 20 -40 19 -118 -5z"/>
<path d="M2915 2980 c-27 -5 -110 -9 -183 -9 -111 -1 -141 -4 -181 -21 -63
-28 -86 -69 -78 -142 15 -130 47 -168 143 -168 96 0 210 80 316 223 55 74 75
129 46 126 -7 -1 -35 -5 -63 -9z"/>
<path d="M2301 2751 c-12 -12 -21 -26 -21 -31 0 -11 -116 -148 -162 -192 -34
-33 -37 -79 -8 -108 25 -25 46 -16 92 36 35 40 47 43 41 12 -5 -28 26 -86 54
-105 29 -20 49 3 63 73 9 44 9 71 -1 123 -7 36 -13 97 -13 135 -1 76 -12 90
-45 57z"/>
<path d="M1016 47 c-31 -40 -32 -47 -8 -47 19 0 64 58 56 72 -10 15 -23 8 -48
-25z"/>
<path d="M1055 10 c-3 -5 -1 -10 4 -10 6 0 11 5 11 10 0 6 -2 10 -4 10 -3 0
-8 -4 -11 -10z"/>
</g>
</svg>
